{
    "asset" : {
        "generator" : "Khronos glTF Blender I/O v1.6.16",
        "version" : "2.0"
    },
    "scene" : 0,
    "scenes" : [
        {
            "name" : "Scene",
            "nodes" : [
                0,
                1,
                2,
                3,
                4,
                5,
                6
            ]
        }
    ],
    "nodes" : [
        {
            "mesh" : 0,
            "name" : "Mesh_0",
            "scale" : [
                1.188860535621643,
                1,
                1
            ],
            "translation" : [
                0,
                1.3359354734420776,
                0
            ]
        },
        {
            "mesh" : 1,
            "name" : "Mesh_1",
            "scale" : [
                1.188860535621643,
                1,
                1
            ],
            "translation" : [
                0,
                1.3359354734420776,
                0
            ]
        },
        {
            "mesh" : 2,
            "name" : "Mesh_2",
            "scale" : [
                1.188860535621643,
                1,
                1
            ],
            "translation" : [
                0,
                1.3359354734420776,
                0
            ]
        },
        {
            "name" : "Sketchfab_model",
            "rotation" : [
                -0.7071068286895752,
                0,
                0,
                0.7071068286895752
            ],
            "scale" : [
                0.08904531598091125,
                0.08904531598091125,
                0.08904531598091125
            ]
        },
        {
            "mesh" : 3,
            "name" : "typeMesh4_text_0",
            "rotation" : [
                -0.012128577567636967,
                -0.7062512636184692,
                -0.0037849368527531624,
                0.7078472375869751
            ],
            "scale" : [
                0.3376525640487671,
                0.3777327537536621,
                1.000067949295044
            ],
            "translation" : [
                1.9569988250732422,
                -0.15028372406959534,
                1.4701889753341675
            ]
        },
        {
            "mesh" : 4,
            "name" : "typeMesh4_metall_2_0",
            "rotation" : [
                -0.012128577567636967,
                -0.7062512636184692,
                -0.0037849368527531624,
                0.7078472375869751
            ],
            "scale" : [
                0.3376525640487671,
                0.3777327537536621,
                1.000067949295044
            ],
            "translation" : [
                1.9569988250732422,
                -0.15028372406959534,
                1.4701889753341675
            ]
        },
        {
            "mesh" : 5,
            "name" : "typeMesh4_glass_0",
            "rotation" : [
                -0.0032455504406243563,
                -0.7061158418655396,
                0.005122721660882235,
                0.7080703377723694
            ],
            "scale" : [
                0.3376524746417999,
                0.37775367498397827,
                1.000006914138794
            ],
            "translation" : [
                1.9569988250732422,
                -0.15028372406959534,
                1.4701889753341675
            ]
        }
    ],
    "materials" : [
        {
            "doubleSided" : true,
            "name" : "Frente",
            "pbrMetallicRoughness" : {
                "baseColorTexture" : {
                    "index" : 0
                },
                "metallicFactor" : 0,
                "roughnessFactor" : 0.6000000238418579
            }
        },
        {
            "doubleSided" : true,
            "name" : "material",
            "pbrMetallicRoughness" : {
                "baseColorFactor" : [
                    0.019382400438189507,
                    0.018500199541449547,
                    0.019382400438189507,
                    1
                ],
                "metallicFactor" : 0,
                "roughnessFactor" : 0.6000000238418579
            }
        },
        {
            "doubleSided" : true,
            "name" : "Tras",
            "pbrMetallicRoughness" : {
                "baseColorTexture" : {
                    "index" : 1
                },
                "metallicFactor" : 0,
                "roughnessFactor" : 0.6000000238418579
            }
        },
        {
            "doubleSided" : true,
            "name" : "text",
            "pbrMetallicRoughness" : {
                "baseColorFactor" : [
                    0.9229999780654907,
                    0.9728639721870422,
                    1,
                    1
                ],
                "metallicFactor" : 0,
                "roughnessFactor" : 0.6000000238418579
            }
        },
        {
            "doubleSided" : true,
            "name" : "metall_2",
            "pbrMetallicRoughness" : {
                "baseColorFactor" : [
                    0.11958400160074234,
                    0.13798600435256958,
                    0.14800000190734863,
                    1
                ],
                "metallicFactor" : 0.9684575796127319,
                "roughnessFactor" : 0.6000000238418579
            }
        },
        {
            "alphaMode" : "BLEND",
            "doubleSided" : true,
            "name" : "glass",
            "pbrMetallicRoughness" : {
                "baseColorFactor" : [
                    0.19453975558280945,
                    0.23334898054599762,
                    0.24199815094470978,
                    0.22667644917964935
                ],
                "metallicFactor" : 0,
                "roughnessFactor" : 0.48812389373779297
            }
        }
    ],
    "meshes" : [
        {
            "name" : "Mesh_0",
            "primitives" : [
                {
                    "attributes" : {
                        "POSITION" : 0,
                        "NORMAL" : 1,
                        "TEXCOORD_0" : 2
                    },
                    "indices" : 3,
                    "material" : 0
                }
            ]
        },
        {
            "name" : "Mesh_1",
            "primitives" : [
                {
                    "attributes" : {
                        "POSITION" : 4,
                        "NORMAL" : 5,
                        "TEXCOORD_0" : 6
                    },
                    "indices" : 7,
                    "material" : 1
                }
            ]
        },
        {
            "name" : "Mesh_2",
            "primitives" : [
                {
                    "attributes" : {
                        "POSITION" : 8,
                        "NORMAL" : 9,
                        "TEXCOORD_0" : 10
                    },
                    "indices" : 11,
                    "material" : 2
                }
            ]
        },
        {
            "name" : "typeMesh4_text_0",
            "primitives" : [
                {
                    "attributes" : {
                        "POSITION" : 12,
                        "NORMAL" : 13,
                        "TEXCOORD_0" : 14
                    },
                    "indices" : 15,
                    "material" : 3
                }
            ]
        },
        {
            "name" : "typeMesh4_metall_2_0",
            "primitives" : [
                {
                    "attributes" : {
                        "POSITION" : 16,
                        "NORMAL" : 17,
                        "TEXCOORD_0" : 18
                    },
                    "indices" : 19,
                    "material" : 4
                }
            ]
        },
        {
            "name" : "typeMesh4_glass_0",
            "primitives" : [
                {
                    "attributes" : {
                        "POSITION" : 20,
                        "NORMAL" : 21,
                        "TEXCOORD_0" : 22
                    },
                    "indices" : 23,
                    "material" : 5
                }
            ]
        }
    ],
    "textures" : [
        {
            "sampler" : 0,
            "source" : 0
        },
        {
            "sampler" : 0,
            "source" : 1
        }
    ],
    "images" : [
        {
            "mimeType" : "image/jpeg",
            "name" : "Frente_baseColor",
            "uri" : "textures/Frente_baseColor.jpg"
        },
        {
            "mimeType" : "image/jpeg",
            "name" : "Tras_baseColor",
            "uri" : "textures/Tras_baseColor.jpg"
        }
    ],
    "accessors" : [
        {
            "bufferView" : 0,
            "componentType" : 5126,
            "count" : 31,
            "max" : [
                0.4270131587982178,
                1.1566091775894165,
                1
            ],
            "min" : [
                -0.4270131587982178,
                -1.1566091775894165,
                -1
            ],
            "type" : "VEC3"
        },
        {
            "bufferView" : 1,
            "componentType" : 5126,
            "count" : 31,
            "type" : "VEC3"
        },
        {
            "bufferView" : 2,
            "componentType" : 5126,
            "count" : 31,
            "type" : "VEC2"
        },
        {
            "bufferView" : 3,
            "componentType" : 5123,
            "count" : 33,
            "type" : "SCALAR"
        },
        {
            "bufferView" : 4,
            "componentType" : 5126,
            "count" : 151,
            "max" : [
                0.4270131587982178,
                1.1566091775894165,
                1
            ],
            "min" : [
                -0.4270131587982178,
                -1.2021628618240356,
                -1
            ],
            "type" : "VEC3"
        },
        {
            "bufferView" : 5,
            "componentType" : 5126,
            "count" : 151,
            "type" : "VEC3"
        },
        {
            "bufferView" : 6,
            "componentType" : 5126,
            "count" : 151,
            "type" : "VEC2"
        },
        {
            "bufferView" : 7,
            "componentType" : 5123,
            "count" : 498,
            "type" : "SCALAR"
        },
        {
            "bufferView" : 8,
            "componentType" : 5126,
            "count" : 7,
            "max" : [
                0.4270131587982178,
                1.137527346611023,
                -1
            ],
            "min" : [
                -0.4270131587982178,
                -1.1566091775894165,
                -1
            ],
            "type" : "VEC3"
        },
        {
            "bufferView" : 9,
            "componentType" : 5126,
            "count" : 7,
            "type" : "VEC3"
        },
        {
            "bufferView" : 10,
            "componentType" : 5126,
            "count" : 7,
            "type" : "VEC2"
        },
        {
            "bufferView" : 11,
            "componentType" : 5123,
            "count" : 15,
            "type" : "SCALAR"
        },
        {
            "bufferView" : 12,
            "componentType" : 5126,
            "count" : 3761,
            "max" : [
                -6.277132034301758,
                1.6475558280944824,
                2.4798545837402344
            ],
            "min" : [
                -6.689478874206543,
                1.2826967239379883,
                2.475370168685913
            ],
            "type" : "VEC3"
        },
        {
            "bufferView" : 13,
            "componentType" : 5126,
            "count" : 3761,
            "type" : "VEC3"
        },
        {
            "bufferView" : 14,
            "componentType" : 5126,
            "count" : 3761,
            "type" : "VEC2"
        },
        {
            "bufferView" : 15,
            "componentType" : 5123,
            "count" : 8790,
            "type" : "SCALAR"
        },
        {
            "bufferView" : 16,
            "componentType" : 5126,
            "count" : 115,
            "max" : [
                -6.277132034301758,
                1.6475558280944824,
                2.475370168685913
            ],
            "min" : [
                -6.689478874206543,
                1.2826967239379883,
                2.452091932296753
            ],
            "type" : "VEC3"
        },
        {
            "bufferView" : 17,
            "componentType" : 5126,
            "count" : 115,
            "type" : "VEC3"
        },
        {
            "bufferView" : 18,
            "componentType" : 5126,
            "count" : 115,
            "type" : "VEC2"
        },
        {
            "bufferView" : 19,
            "componentType" : 5123,
            "count" : 204,
            "type" : "SCALAR"
        },
        {
            "bufferView" : 20,
            "componentType" : 5126,
            "count" : 1564,
            "max" : [
                -1.5852534770965576,
                6.981257915496826,
                2.451241970062256
            ],
            "min" : [
                -7.226414680480957,
                1.0435905456542969,
                2.42476749420166
            ],
            "type" : "VEC3"
        },
        {
            "bufferView" : 21,
            "componentType" : 5126,
            "count" : 1564,
            "type" : "VEC3"
        },
        {
            "bufferView" : 22,
            "componentType" : 5126,
            "count" : 1564,
            "type" : "VEC2"
        },
        {
            "bufferView" : 23,
            "componentType" : 5123,
            "count" : 2256,
            "type" : "SCALAR"
        }
    ],
    "bufferViews" : [
        {
            "buffer" : 0,
            "byteLength" : 372,
            "byteOffset" : 0
        },
        {
            "buffer" : 0,
            "byteLength" : 372,
            "byteOffset" : 372
        },
        {
            "buffer" : 0,
            "byteLength" : 248,
            "byteOffset" : 744
        },
        {
            "buffer" : 0,
            "byteLength" : 66,
            "byteOffset" : 992
        },
        {
            "buffer" : 0,
            "byteLength" : 1812,
            "byteOffset" : 1060
        },
        {
            "buffer" : 0,
            "byteLength" : 1812,
            "byteOffset" : 2872
        },
        {
            "buffer" : 0,
            "byteLength" : 1208,
            "byteOffset" : 4684
        },
        {
            "buffer" : 0,
            "byteLength" : 996,
            "byteOffset" : 5892
        },
        {
            "buffer" : 0,
            "byteLength" : 84,
            "byteOffset" : 6888
        },
        {
            "buffer" : 0,
            "byteLength" : 84,
            "byteOffset" : 6972
        },
        {
            "buffer" : 0,
            "byteLength" : 56,
            "byteOffset" : 7056
        },
        {
            "buffer" : 0,
            "byteLength" : 30,
            "byteOffset" : 7112
        },
        {
            "buffer" : 0,
            "byteLength" : 45132,
            "byteOffset" : 7144
        },
        {
            "buffer" : 0,
            "byteLength" : 45132,
            "byteOffset" : 52276
        },
        {
            "buffer" : 0,
            "byteLength" : 30088,
            "byteOffset" : 97408
        },
        {
            "buffer" : 0,
            "byteLength" : 17580,
            "byteOffset" : 127496
        },
        {
            "buffer" : 0,
            "byteLength" : 1380,
            "byteOffset" : 145076
        },
        {
            "buffer" : 0,
            "byteLength" : 1380,
            "byteOffset" : 146456
        },
        {
            "buffer" : 0,
            "byteLength" : 920,
            "byteOffset" : 147836
        },
        {
            "buffer" : 0,
            "byteLength" : 408,
            "byteOffset" : 148756
        },
        {
            "buffer" : 0,
            "byteLength" : 18768,
            "byteOffset" : 149164
        },
        {
            "buffer" : 0,
            "byteLength" : 18768,
            "byteOffset" : 167932
        },
        {
            "buffer" : 0,
            "byteLength" : 12512,
            "byteOffset" : 186700
        },
        {
            "buffer" : 0,
            "byteLength" : 4512,
            "byteOffset" : 199212
        }
    ],
    "samplers" : [
        {
            "magFilter" : 9729,
            "minFilter" : 9987
        }
    ],
    "buffers" : [
        {
            "byteLength" : 203724,
            "uri" : "untitled.bin"
        }
    ]
}
